<?xml version="1.0"?>
<svg width="67.949" height="67.949" xmlns="http://www.w3.org/2000/svg">
 <g class="layer">
  <title>Layer 1</title>
  <g id="svg_1">
   <path d="m62.49,11.24c-7.39,-7.39 -19.41,-7.39 -26.8,0l-1.72,1.71l-1.71,-1.71c-7.39,-7.39 -19.41,-7.39 -26.8,0c-7.24,7.24 -7.28,18.71 -0.11,26.69c6.55,7.27 25.85,22.98 26.67,23.65a2.99,2.99 0 0 0 1.89,0.67l0.06,0c0.69,0.03 1.38,-0.2 1.96,-0.67c0.82,-0.67 20.12,-16.38 26.67,-23.65c7.17,-7.98 7.13,-19.45 -0.11,-26.69zm-4.35,22.67c-5.1,5.67 -19.13,17.36 -24.17,21.51c-5.03,-4.14 -19.06,-15.84 -24.16,-21.51c-5.01,-5.56 -5.05,-13.48 -0.11,-18.43c2.53,-2.52 5.84,-3.78 9.16,-3.78s6.63,1.26 9.16,3.78l3.77,3.77a2.9,2.9 0 0 0 1.61,0.82a3.01,3.01 0 0 0 2.76,-0.81l3.77,-3.78c5.05,-5.05 13.27,-5.05 18.32,0c4.94,4.95 4.89,12.87 -0.11,18.43z" fill="#000000" id="svg_2"/>
  </g>
  <ellipse cx="20.47" cy="25.97" fill="#000000" id="svg_3" rx="16.5" ry="15.5" stroke="#000000"/>
  <ellipse cx="34.05" cy="40.55" fill="#000000" id="svg_4" rx="16.5" ry="15.5" stroke="#000000"/>
  <ellipse cx="49.05" cy="26.55" fill="#000000" id="svg_5" rx="16.5" ry="15.5" stroke="#000000"/>
 </g>
</svg>
